# xmcd
#
# Track frame offsets:
#	150
#	14845
#	28940
#	45285
#	57673
#	69613
#	86665
#	103930
#	120075
#	134578
#	150140
#	164818
#	180310
#	195333
#
# Disc length: 2768
#
# Revision: 3
# Processed by: cddbd v1.5.1PL0 Copyright (c) Steve Scherf et al.
# Submitted via: audiograbber 1.83.01
# Normalized: r2:DSETVAR1
#
DISCID=ba0ace0e
DTITLE=Various Artist - Mr Music Country 1995-10
DYEAR=1995
DGENRE=Country
TTITLE0=Eddie Smithers - Curse Of A Stubborn Man
TTITLE1=Carlene Carter - Hurricane
TTITLE2=A.C. Brooks - American Night
TTITLE3=Mark Collie - Three Words Two Hearts One Night
TTITLE4=Daryle Singletary - My Heart's Too Broke (To Pay Attention)
TTITLE5=Barbara Lamb and Tim O'Brien - I'll Never Be Free
TTITLE6=Pirates Of The Mississippi - The Biggest Broken Heart In Tennesse
TTITLE7=Lee Kernaghan - Where Country Is
TTITLE8=Daron Norwood - You Could've Heard A Heartbreak
TTITLE9=T.Jae. Christian - Three Ring Circus
TTITLE10=Inger Nordström and Rhinestone Band - He Always Come To Me
TTITLE11=Clay Walker - Boogie 'Till The Cows Come Home
TTITLE12=Pat Alger - The Thunder Rolls
TTITLE13=Harold Massey - Slippin' Away
EXTD=
EXTT0=
EXTT1=
EXTT2=
EXTT3=
EXTT4=
EXTT5=
EXTT6=
EXTT7=
EXTT8=
EXTT9=
EXTT10=
EXTT11=
EXTT12=
EXTT13=
PLAYORDER=
